# xmcd
#
# Track frame offsets:
#	150
#	24700
#	48225
#	65370
#	89610
#
# Disc length: 1427 seconds
#
# Revision: 0
# Processed by: cddbd v1.5.2PL0 Copyright (c) Steve Scherf et al.
# Submitted via: EasyCDDAExtractor 11.5.0.1
#
DISCID=3c059105
DTITLE=Scarface - Homies and Thugs [CD 5)
DYEAR=1900
DGENRE=Hip-Hop
TTITLE0=Homies and Thugs (Remix Clean Version)
TTITLE1=Homies and Thugs (LP Clean Version)
TTITLE2=Homies and Thugs (Radio Edit Remix)
TTITLE3=Homies and Thugs (Remix Instrumental)
TTITLE4=Homies and Thugs (LP Instrumental)
EXTD=
EXTT0=
EXTT1=
EXTT2=
EXTT3=
EXTT4=
PLAYORDER=
